<?xml version="1.0" encoding="UTF-8"?>
<svg id="Layer_2" data-name="Layer 2" xmlns="http://www.w3.org/2000/svg" viewBox="0 0 486.7 486.7">
  <defs>
    <style>
      .cls-1 {
        fill: #3e3157;
      }

      .cls-2 {
        fill: #fbae3d;
      }

      .cls-3 {
        fill: #e1685e;
      }
    </style>
  </defs>
  <path class="cls-1" d="m486.7,486.7c-38-44.1-76-88.3-126.7-96.8s-114,18.7-159.4,3.9c-45.4-14.8-72.7-71.7-87.7-122.2-14.9-50.6-17.4-94.8-34.2-139C61.9,88.4,30.9,44.2,0,0h486.7v486.7Z"/>
  <path class="cls-3" d="m486.7,324.5c-25.3-29.4-50.7-58.9-84.5-64.5-33.8-5.7-76,12.4-106.2,2.5-30.3-9.9-48.5-47.8-58.5-81.5-9.9-33.7-11.6-63.1-22.8-92.6S182.9,29.5,162.2,0h324.5v324.5Z"/>
  <path class="cls-2" d="m486.7,162.2c-12.7-14.7-25.3-29.4-42.2-32.2-16.9-2.9-38,6.2-53.2,1.3-15.1-5-24.2-23.9-29.2-40.8-5-16.8-5.8-31.6-11.4-46.3s-15.9-29.5-26.2-44.2h162.2v162.2Z"/>
</svg>