<?xml version="1.0" encoding="UTF-8"?>
<svg id="Layer_1" data-name="Layer 1" xmlns="http://www.w3.org/2000/svg" viewBox="0 0 486.7 488.58">
  <defs>
    <style>
      .cls-1 {
        fill: #3e3157;
      }

      .cls-2 {
        fill: #fbae3d;
      }

      .cls-3 {
        fill: #e1685e;
      }
    </style>
  </defs>
  <path class="cls-1" d="m0,1.88C55.9-1.22,111.9-4.22,150.4,25.68c38.5,29.8,59.6,92.4,90.6,131.2,30.9,38.8,71.8,53.6,102.8,81.9,31.1,28.3,52.5,70,74.7,113.8,22.2,43.9,45.2,90,68.2,136H0V1.88Z"/>
  <path class="cls-3" d="m0,164.08c37.3-2,74.6-4,100.3,15.9,25.7,19.9,39.7,61.6,60.4,87.5,20.6,25.8,47.8,35.7,68.5,54.6,20.7,18.8,35,46.6,49.8,75.9,14.8,29.2,30.1,59.9,45.5,90.6H0V164.08Z"/>
  <path class="cls-2" d="m0,326.38c18.6-1.1,37.3-2.1,50.1,7.9,12.9,9.9,19.9,30.8,30.2,43.7,10.3,13,24,17.9,34.3,27.3,10.4,9.5,17.5,23.4,24.9,38,7.4,14.6,15.1,30,22.7,45.3H0v-162.2Z"/>
</svg>